<svg height="35.740002mm" viewBox="0 0 35.740002 35.740002" width="35.740002mm" xmlns="http://www.w3.org/2000/svg"><g transform="matrix(.35277777 0 0 -.35277777 -6 177.73979)"><path d="m118.31787 402.51934h-101.309996v101.31h101.309996z" fill="#38f"/><g fill="#fff100" transform="translate(-2.266126 63.98934)"><path d="m88.7085 396.9629c4.296-10.371-.629-22.26-11-26.556s-22.261.628-26.557 10.999.63 22.261 11.001 26.557c10.371 4.295 22.26-.629 26.556-11"/><path d="m67.2222 413.9199-11.833 10.37-1.033-15.7z"/><path d="m85.5054 369.7803-1.034-15.7-11.832 10.37z"/><path d="m85.5044 408.5908-1.033 15.698-11.832-10.369z"/><path d="m67.2212 364.4512-11.832-10.371-1.033 15.699z"/><path d="m94.6646 391.8931 10.369 11.832-15.699 1.035z"/><path d="m50.5249 373.6099-15.7 1.035 10.371 11.831z"/><path d="m89.3345 373.6104 15.698 1.033-10.369 11.834z"/><path d="m45.1958 391.8936-10.371 11.833 15.699 1.033z"/></g></g></svg>