<svg height="35.740002mm" viewBox="0 0 35.740002 35.740002" width="35.740002mm" xmlns="http://www.w3.org/2000/svg"><g transform="matrix(.35277777 0 0 -.35277777 -93.999997 177.73979)"><path d="m367.76969 402.51934h-101.313v101.31h101.313z" fill="#888"/><path d="m357.02659 447.23204c0 10.982-8.902 19.887-19.889 19.887-1.808 0-3.56-.246-5.228-.7-3.184 7.402-10.539 12.587-19.112 12.587-11.447 0-20.73-9.252-20.789-20.686-8.238-.36-14.808-7.152-14.808-15.48 0-8.558 6.938-15.497 15.497-15.497.033 0 .065.003.099.003v-.003h44.427v.002c10.946.048 19.803 8.931 19.803 19.887" fill="#ccc"/><path d="m336.71609 429.34284.498.002c9.845.043 17.814 8.035 17.812 17.886-.018 9.88-8.007 17.872-17.889 17.889-1.627 0-3.201-.222-4.703-.63l-1.676-.455-.688 1.595c-2.879 6.691-9.526 11.379-17.273 11.377-10.345.002-18.737-8.363-18.79-18.697l-.009-1.904-1.903-.085c-7.169-.311-12.899-6.228-12.896-13.48.013-7.442 6.025-13.464 13.462-13.498.021.001.066.004.135.004h1.998v-.004zm-45.921-3.999v.103c-8.769.948-15.594 8.372-15.596 17.394.002 8.778 6.462 16.043 14.889 17.301.982 11.685 10.771 20.862 22.709 20.864 8.798-.002 16.429-4.982 20.229-12.277 1.332.255 2.706.39 4.111.39 12.092 0 21.888-9.798 21.89-21.888-.002-11.384-8.692-20.734-19.803-21.786v-.101z" fill="#555"/></g></svg>