<svg height="35.740002mm" viewBox="0 0 35.740002 35.740002" width="35.740002mm" xmlns="http://www.w3.org/2000/svg"><g transform="matrix(.35277777 0 0 -.35277777 -138 132.73979)"><path d="m492.4941 274.96028h-101.313v101.31h101.313z" fill="#888"/><g transform="translate(-121.5429 61.757281)"><path d="m599.8105 231.334c-.751.676-1.248 1.49-1.663 2.299-.806 1.616-1.376 3.332-2.014 4.175-.453.569-.628.657-1.036.677-.327-.009-.504-.082-.833-.367-.315-.285-.681-.808-1.038-1.473-.74-1.332-1.387-3.137-2.564-4.607-.764-.972-2.012-1.863-3.578-1.849h-.064c-1.18-.012-2.252.468-2.992 1.145-.753.676-1.248 1.49-1.665 2.299-.806 1.616-1.376 3.332-2.014 4.175-.451.569-.627.657-1.036.677-.327-.009-.504-.082-.833-.367-.316-.285-.681-.808-1.038-1.473-.74-1.332-1.387-3.137-2.563-4.607-.765-.972-2.011-1.863-3.579-1.849h-.045c-1.182-.012-2.254.468-2.994 1.145-.753.676-1.248 1.49-1.665 2.299-.807 1.616-1.376 3.332-2.014 4.175-.451.569-.627.657-1.034.677-.329-.009-.506-.082-.833-.367-.315-.285-.683-.808-1.04-1.473-.74-1.332-1.386-3.137-2.562-4.607-.766-.972-2.013-1.863-3.58-1.849h-.136c-1.183-.012-2.254.468-2.994 1.145-.753.676-1.248 1.49-1.665 2.299-.804 1.616-1.376 3.332-2.015 4.175-.45.569-.627.657-1.033.677-.329-.009-.506-.082-.834-.367-.315-.285-.68-.808-1.039-1.473-.74-1.332-1.387-3.137-2.564-4.607-.765-.972-2.011-1.863-3.576-1.849h-.047c-1.182-.012-2.253.468-2.995 1.145-.752.676-1.248 1.49-1.663 2.299-.806 1.616-1.376 3.332-2.014 4.175-.453.569-.628.657-1.035.677-.328-.009-.504-.082-.834-.367-.314-.285-.68-.808-1.038-1.473-.74-1.332-1.387-3.137-2.564-4.607-.764-.972-2.012-1.863-3.577-1.849v3.001c.37.011.574.096.914.383.326.287.698.809 1.059 1.465.749 1.325 1.387 3.118 2.527 4.583.738.968 1.957 1.878 3.513 1.865 1.144.015 2.175-.512 2.848-1.197.688-.683 1.129-1.479 1.518-2.277.747-1.589 1.333-3.265 2.02-4.09.475-.553.734-.71 1.321-.734l.047.002c.369.011.574.096.914.383.325.287.698.809 1.059 1.465.747 1.325 1.387 3.118 2.527 4.583.737.968 1.956 1.878 3.513 1.865 1.144.015 2.176-.512 2.848-1.197.686-.683 1.128-1.479 1.516-2.277.748-1.589 1.335-3.265 2.021-4.09.475-.553.735-.71 1.322-.734l.136.002c.373.011.577.096.917.383.325.287.697.809 1.059 1.465.746 1.325 1.386 3.118 2.527 4.583.737.968 1.956 1.878 3.512 1.865 1.145.015 2.176-.512 2.848-1.197.687-.683 1.129-1.479 1.517-2.277.748-1.589 1.334-3.265 2.02-4.09.476-.553.735-.71 1.322-.734l.045.002c.37.011.576.096.916.383.326.287.698.809 1.06 1.465.746 1.325 1.385 3.118 2.526 4.583.738.968 1.957 1.878 3.511 1.865 1.146.015 2.178-.512 2.851-1.197.686-.683 1.128-1.479 1.515-2.277.747-1.589 1.334-3.265 2.021-4.09.476-.553.736-.71 1.32-.734l.064.002c.371.011.575.096.914.383.329.287.698.809 1.06 1.465.748 1.325 1.387 3.118 2.526 4.583.738.968 1.958 1.878 3.513 1.865 1.145.015 2.178-.512 2.85-1.197.687-.683 1.128-1.479 1.516-2.277.746-1.589 1.334-3.265 2.021-4.09.474-.553.733-.71 1.32-.734h.047v-2.999h-.047-.046c-1.164 0-2.216.477-2.948 1.145m-75.9-1.145v-.001z" fill="#fff"/><path d="m587.085 244.1997h-.064c-1.18-.01-2.252.468-2.993 1.146-.753.675-1.248 1.489-1.665 2.299-.805 1.617-1.376 3.333-2.013 4.175-.452.568-.627.657-1.036.678-.328-.012-.504-.083-.833-.37-.316-.282-.681-.808-1.039-1.471-.74-1.332-1.386-3.137-2.562-4.609-.766-.972-2.012-1.863-3.579-1.848h-.045c-1.183-.01-2.254.468-2.994 1.146-.753.675-1.248 1.489-1.665 2.299-.807 1.617-1.376 3.333-2.014 4.175-.451.568-.628.657-1.034.678-.329-.012-.506-.083-.833-.37-.316-.282-.684-.808-1.04-1.471-.74-1.332-1.387-3.137-2.563-4.609-.765-.972-2.012-1.863-3.58-1.848h-.136c-1.182-.01-2.253.468-2.994 1.146-.753.675-1.248 1.489-1.665 2.299-.803 1.617-1.376 3.333-2.014 4.175-.451.568-.627.657-1.034.678-.329-.012-.505-.083-.834-.37-.314-.282-.679-.808-1.039-1.471-.74-1.332-1.386-3.137-2.563-4.609-.766-.972-2.012-1.863-3.576-1.848h-.047c-1.183-.01-2.253.468-2.995 1.146-.752.675-1.248 1.489-1.663 2.299-.806 1.617-1.376 3.333-2.014 4.175-.453.568-.629.657-1.035.678-.328-.012-.504-.083-.834-.37-.315-.282-.681-.808-1.038-1.471-.74-1.332-1.387-3.137-2.565-4.609-.763-.972-2.011-1.863-3.577-1.848v3.001c.37.011.574.098.914.385.326.285.698.806 1.06 1.465.749 1.325 1.387 3.118 2.526 4.583.738.968 1.957 1.878 3.514 1.865 1.143.013 2.175-.514 2.848-1.197.688-.685 1.128-1.482 1.517-2.278.747-1.589 1.334-3.264 2.021-4.092.474-.552.734-.708 1.321-.731h.047c.369.011.574.098.914.385.325.285.697.806 1.058 1.465.747 1.325 1.387 3.118 2.528 4.583.737.968 1.956 1.878 3.512 1.865 1.145.013 2.176-.514 2.848-1.197.687-.685 1.129-1.482 1.517-2.278.748-1.589 1.335-3.264 2.02-4.092.476-.552.736-.708 1.322-.731h.136c.373.011.577.098.917.385.325.285.697.806 1.06 1.465.746 1.325 1.386 3.118 2.526 4.583.737.968 1.956 1.878 3.513 1.865 1.144.013 2.176-.514 2.848-1.197.687-.685 1.128-1.482 1.516-2.278.748-1.589 1.335-3.264 2.021-4.092.475-.552.735-.708 1.322-.731h.045c.37.011.576.098.916.385.326.285.698.806 1.059 1.465.746 1.325 1.385 3.118 2.527 4.583.738.968 1.957 1.878 3.511 1.865 1.146.013 2.177-.514 2.85-1.197.687-.685 1.129-1.482 1.516-2.278.747-1.589 1.334-3.264 2.02-4.092.477-.552.737-.708 1.321-.731h.064c.37.011.574.098.914.385.328.285.697.806 1.06 1.465.748 1.325 1.386 3.118 2.526 4.583.737.968 1.958 1.878 3.513 1.865 1.144.013 2.177-.514 2.849-1.197.688-.685 1.128-1.482 1.517-2.278.746-1.589 1.334-3.264 2.02-4.092.475-.552.734-.708 1.321-.731h.047v-3.001h-.047c-1.183-.01-2.252.468-2.994 1.146-.751.675-1.248 1.489-1.663 2.299-.806 1.617-1.376 3.333-2.014 4.175-.453.568-.628.657-1.036.678-.327-.012-.504-.083-.833-.37-.316-.282-.681-.808-1.038-1.471-.741-1.332-1.387-3.137-2.565-4.609-.758-.964-1.991-1.848-3.539-1.848z" fill="#f2f2f2"/><path d="m587.085 258.208-.064.002c-1.18-.012-2.252.468-2.993 1.144-.753.675-1.248 1.489-1.665 2.299-.805 1.617-1.376 3.333-2.013 4.175-.452.57-.627.657-1.036.678-.328-.01-.504-.083-.833-.367-.316-.285-.681-.811-1.039-1.474-.74-1.332-1.386-3.137-2.562-4.606-.766-.975-2.012-1.864-3.579-1.849h-.045c-1.183-.012-2.254.468-2.994 1.144-.753.675-1.248 1.489-1.665 2.299-.807 1.617-1.376 3.333-2.014 4.175-.451.57-.628.657-1.034.678-.329-.01-.506-.083-.833-.367-.316-.285-.684-.811-1.04-1.474-.74-1.332-1.387-3.137-2.563-4.606-.765-.975-2.012-1.864-3.58-1.849h-.136c-1.182-.012-2.253.468-2.994 1.144-.753.675-1.248 1.489-1.665 2.299-.803 1.617-1.376 3.333-2.014 4.175-.451.57-.627.657-1.034.678-.329-.01-.505-.083-.834-.367-.314-.285-.679-.811-1.039-1.474-.74-1.332-1.386-3.137-2.563-4.606-.766-.975-2.012-1.864-3.576-1.849h-.047c-1.183-.012-2.253.468-2.995 1.144-.752.675-1.248 1.489-1.663 2.299-.806 1.617-1.376 3.333-2.014 4.175-.453.57-.629.657-1.035.678-.328-.01-.504-.083-.834-.367-.315-.285-.681-.811-1.038-1.474-.74-1.332-1.387-3.137-2.565-4.606-.763-.975-2.011-1.864-3.577-1.851v3.001c.37.011.574.098.914.385.326.287.698.806 1.06 1.465.749 1.325 1.387 3.118 2.526 4.583.738.968 1.957 1.878 3.514 1.865 1.143.015 2.175-.512 2.848-1.197.688-.683 1.128-1.482 1.517-2.278.747-1.589 1.334-3.264 2.021-4.092.474-.552.734-.708 1.321-.731h.047c.369.011.574.098.914.385.325.287.697.806 1.058 1.465.747 1.325 1.387 3.118 2.528 4.583.737.968 1.956 1.878 3.512 1.865 1.145.015 2.176-.512 2.848-1.197.687-.683 1.129-1.482 1.517-2.278.748-1.589 1.335-3.264 2.02-4.092.476-.552.736-.708 1.322-.731h.136c.373.011.577.098.917.385.325.287.697.806 1.06 1.465.746 1.325 1.386 3.118 2.526 4.583.737.968 1.956 1.878 3.513 1.865 1.144.015 2.176-.512 2.848-1.197.687-.683 1.128-1.482 1.516-2.278.748-1.589 1.335-3.264 2.021-4.092.475-.552.735-.708 1.322-.731h.045c.37.011.576.098.916.385.326.287.698.806 1.059 1.465.746 1.325 1.385 3.118 2.527 4.583.738.968 1.957 1.878 3.511 1.865 1.146.015 2.177-.512 2.85-1.197.687-.683 1.129-1.482 1.516-2.278.747-1.589 1.334-3.264 2.02-4.092.477-.552.737-.708 1.321-.731h.064c.37.011.574.098.914.385.328.287.697.806 1.06 1.465.748 1.325 1.386 3.118 2.526 4.583.737.968 1.958 1.878 3.513 1.865 1.144.015 2.177-.512 2.849-1.197.688-.683 1.128-1.482 1.517-2.278.746-1.589 1.334-3.264 2.02-4.092.475-.552.734-.708 1.321-.731h.047v-2.999h-.047c-1.183-.012-2.252.468-2.994 1.144-.751.675-1.248 1.489-1.663 2.299-.806 1.617-1.376 3.333-2.014 4.175-.453.57-.628.657-1.036.678-.327-.01-.504-.083-.833-.367-.316-.285-.681-.811-1.038-1.474-.741-1.332-1.387-3.137-2.565-4.606-.759-.968-1.994-1.851-3.544-1.851z" fill="#e6e6e6"/><path d="m599.8105 273.3647c-.751.676-1.248 1.489-1.663 2.299-.806 1.617-1.376 3.332-2.014 4.175-.453.569-.628.657-1.036.678-.327-.01-.504-.083-.833-.368-.315-.285-.681-.81-1.038-1.473-.74-1.332-1.387-3.137-2.564-4.607-.764-.972-2.012-1.863-3.578-1.848h-.064c-1.18-.013-2.252.468-2.992 1.144-.753.676-1.248 1.489-1.665 2.299-.806 1.617-1.376 3.332-2.014 4.175-.451.569-.627.657-1.036.678-.327-.01-.504-.083-.833-.368-.316-.285-.681-.81-1.038-1.473-.74-1.332-1.387-3.137-2.563-4.607-.765-.972-2.011-1.863-3.579-1.848h-.045c-1.182-.013-2.254.468-2.994 1.144-.753.676-1.248 1.489-1.665 2.299-.807 1.617-1.376 3.332-2.014 4.175-.451.569-.627.657-1.034.678-.329-.01-.506-.083-.833-.368-.315-.285-.683-.81-1.04-1.473-.74-1.332-1.386-3.137-2.562-4.607-.766-.972-2.013-1.863-3.58-1.848h-.136c-1.183-.013-2.254.468-2.994 1.144-.753.676-1.248 1.489-1.665 2.299-.804 1.617-1.376 3.332-2.015 4.175-.45.569-.627.657-1.033.678-.329-.01-.506-.083-.834-.368-.315-.285-.68-.81-1.039-1.473-.74-1.332-1.387-3.137-2.564-4.607-.765-.972-2.011-1.863-3.576-1.848h-.047c-1.182-.013-2.253.468-2.995 1.144-.752.676-1.248 1.489-1.663 2.299-.806 1.617-1.376 3.332-2.014 4.175-.453.569-.628.657-1.035.678-.328-.01-.504-.083-.834-.368-.314-.285-.68-.81-1.038-1.473-.74-1.332-1.387-3.137-2.564-4.607-.764-.972-2.012-1.863-3.577-1.848v3.001c.37.01.574.096.914.383.326.287.698.805 1.059 1.465.749 1.325 1.387 3.117 2.527 4.583.738.967 1.957 1.878 3.513 1.865 1.144.014 2.175-.513 2.848-1.197.688-.683 1.129-1.483 1.518-2.278.747-1.589 1.333-3.264 2.02-4.092.475-.551.734-.708 1.321-.732l.047.003c.369.01.574.096.914.383.325.287.698.805 1.059 1.465.747 1.325 1.387 3.117 2.527 4.583.737.967 1.956 1.878 3.513 1.865 1.144.014 2.176-.513 2.848-1.197.686-.683 1.128-1.483 1.516-2.278.748-1.589 1.335-3.264 2.021-4.092.475-.551.735-.708 1.322-.732l.136.003c.373.01.577.096.917.383.325.287.697.805 1.059 1.465.746 1.325 1.386 3.117 2.527 4.583.737.967 1.956 1.878 3.512 1.865 1.145.014 2.176-.513 2.848-1.197.687-.683 1.129-1.483 1.517-2.278.748-1.589 1.334-3.264 2.02-4.092.476-.551.735-.708 1.322-.732l.045.003c.37.01.576.096.916.383.326.287.698.805 1.06 1.465.746 1.325 1.385 3.117 2.526 4.583.738.967 1.957 1.878 3.511 1.865 1.146.014 2.178-.513 2.851-1.197.686-.683 1.128-1.483 1.515-2.278.747-1.589 1.334-3.264 2.021-4.092.476-.551.736-.708 1.32-.732l.064.003c.371.01.575.096.914.383.329.287.698.805 1.06 1.465.748 1.325 1.387 3.117 2.526 4.583.738.967 1.958 1.878 3.513 1.865 1.145.014 2.178-.513 2.85-1.197.687-.683 1.128-1.483 1.516-2.278.746-1.589 1.334-3.264 2.021-4.092.474-.551.733-.708 1.32-.732h.047v-2.998h-.047-.046c-1.164 0-2.216.477-2.948 1.144m-75.9-1.144v-.002z" fill="#ccc"/><path d="m599.8105 287.3755c-.751.676-1.248 1.488-1.663 2.299-.806 1.616-1.376 3.332-2.014 4.174-.453.57-.628.657-1.036.679-.327-.011-.504-.083-.833-.368-.315-.285-.681-.808-1.038-1.474-.74-1.331-1.387-3.137-2.564-4.606-.764-.972-2.012-1.863-3.578-1.849h-.064c-1.18-.012-2.252.469-2.992 1.145-.753.676-1.248 1.488-1.665 2.299-.806 1.616-1.376 3.332-2.014 4.174-.451.57-.627.657-1.036.679-.327-.011-.504-.083-.833-.368-.316-.285-.681-.808-1.038-1.474-.74-1.331-1.387-3.137-2.563-4.606-.765-.972-2.011-1.863-3.579-1.849h-.045c-1.182-.012-2.254.469-2.994 1.145-.753.676-1.248 1.488-1.665 2.299-.807 1.616-1.376 3.332-2.014 4.174-.451.57-.627.657-1.034.679-.329-.011-.506-.083-.833-.368-.315-.285-.683-.808-1.04-1.474-.74-1.331-1.386-3.137-2.562-4.606-.766-.972-2.013-1.863-3.58-1.849h-.136c-1.183-.012-2.254.469-2.994 1.145-.753.676-1.248 1.488-1.665 2.299-.804 1.616-1.376 3.332-2.015 4.174-.45.57-.627.657-1.033.679-.329-.011-.506-.083-.834-.368-.315-.285-.68-.808-1.039-1.474-.74-1.331-1.387-3.137-2.564-4.606-.765-.972-2.011-1.863-3.576-1.849h-.047c-1.182-.012-2.253.469-2.995 1.145-.752.676-1.248 1.488-1.663 2.299-.806 1.616-1.376 3.332-2.014 4.174-.453.57-.628.657-1.035.679-.328-.011-.504-.083-.834-.368-.314-.285-.68-.808-1.038-1.474-.74-1.331-1.387-3.137-2.564-4.606-.764-.972-2.012-1.863-3.577-1.849v3.001c.37.011.574.096.914.383.326.287.698.806 1.059 1.468.749 1.322 1.387 3.115 2.527 4.581.738.967 1.957 1.877 3.513 1.864 1.144.015 2.175-.512 2.848-1.197.688-.683 1.129-1.482 1.518-2.277.747-1.589 1.333-3.265 2.02-4.09.475-.553.734-.711 1.321-.734l.047.002c.369.011.574.096.914.383.325.287.698.806 1.059 1.468.747 1.322 1.387 3.115 2.527 4.581.737.967 1.956 1.877 3.513 1.864 1.144.015 2.176-.512 2.848-1.197.686-.683 1.128-1.482 1.516-2.277.748-1.589 1.335-3.265 2.021-4.09.475-.553.735-.711 1.322-.734l.136.002c.373.011.577.096.917.383.325.287.697.806 1.059 1.468.746 1.322 1.386 3.115 2.527 4.581.737.967 1.956 1.877 3.512 1.864 1.145.015 2.176-.512 2.848-1.197.687-.683 1.129-1.482 1.517-2.277.748-1.589 1.334-3.265 2.02-4.09.476-.553.735-.711 1.322-.734l.045.002c.37.011.576.096.916.383.326.287.698.806 1.06 1.468.746 1.322 1.385 3.115 2.526 4.581.738.967 1.957 1.877 3.511 1.864 1.146.015 2.178-.512 2.851-1.197.686-.683 1.128-1.482 1.515-2.277.747-1.589 1.334-3.265 2.021-4.09.476-.553.736-.711 1.32-.734l.064.002c.371.011.575.096.914.383.329.287.698.806 1.06 1.468.748 1.322 1.387 3.115 2.526 4.581.738.967 1.958 1.877 3.513 1.864 1.145.015 2.178-.512 2.85-1.197.687-.683 1.128-1.482 1.516-2.277.746-1.589 1.334-3.265 2.021-4.09.474-.553.733-.711 1.32-.734h.047v-2.999h-.047-.046c-1.164 0-2.216.478-2.948 1.145" fill="#b3b3b3"/></g></g></svg>