<svg height="35.740002mm" viewBox="0 0 35.740002 35.740002" width="35.740002mm" xmlns="http://www.w3.org/2000/svg"><g transform="matrix(.35277777 0 0 -.35277777 -50.000001 132.73979)"><path d="m243.04529 274.96028h-101.313v101.31h101.313z" fill="#888"/><g transform="translate(-.68371 61.75728)"><g><path d="m231.1641 274.0547c0 10.208-8.275 18.485-18.486 18.485-1.682 0-3.31-.229-4.86-.651-2.96 6.88-9.797 11.7-17.764 11.7-10.641 0-19.27-8.6-19.325-19.228-7.657-.335-13.763-6.648-13.763-14.388 0-7.955 6.449-14.405 14.404-14.405.031 0 .061.004.092.004v-.004h41.295v.002c10.174.044 18.407 8.301 18.407 18.485" fill="#ccc"/><path d="m172.7295 284.3511-.01-1.904-1.903-.084c-6.589-.288-11.854-5.726-11.851-12.39.012-6.833 5.527-12.363 12.351-12.406.024.001.074.004.145.004h1.999v-.002h39.287c9.072.039 16.418 7.405 16.416 16.486-.017 9.104-7.38 16.469-16.486 16.486-1.501-.002-2.949-.206-4.335-.581l-1.676-.458-.686 1.597c-2.656 6.169-8.784 10.491-15.928 10.489h-.003c-9.537-.001-17.273-7.712-17.32-17.237m-3.267-30.784v.11c-8.162.946-14.495 7.88-14.497 16.296.002 8.192 6.001 14.977 13.849 16.205.969 10.881 10.104 19.41 21.238 19.412 8.195-.004 15.307-4.622 18.878-11.396 1.215.227 2.467.346 3.747.346 11.316-.001 20.485-9.171 20.488-20.485h-.003c0-10.613-8.067-19.337-18.407-20.379v-.109z" fill="#333"/></g><g fill="#fff"><path d="m177.0225 246.2759c0-1.93-1.564-3.493-3.494-3.493-1.929 0-3.493 1.563-3.493 3.493 0 1.929 1.564 3.493 3.493 3.493 1.93 0 3.494-1.564 3.494-3.493"/><path d="m159.9434 234.9033c0-1.93-1.564-3.494-3.494-3.494-1.929 0-3.493 1.564-3.493 3.494 0 1.929 1.564 3.493 3.493 3.493 1.93 0 3.494-1.564 3.494-3.493"/><path d="m214.9058 243.4424c0-1.929-1.563-3.494-3.493-3.494s-3.493 1.565-3.493 3.494 1.563 3.493 3.493 3.493 3.493-1.564 3.493-3.493"/><path d="m194.4414 223.373c0-1.929-1.564-3.493-3.494-3.493-1.929 0-3.493 1.564-3.493 3.493s1.564 3.493 3.493 3.493c1.93 0 3.494-1.564 3.494-3.493"/><path d="m178.1553 214.2021c.029 10.835 2.151 20.061 5.554 24.368 1.14 1.427 2.549 2.392 4.181 2.396v-1.999c-.781.006-1.673-.471-2.623-1.649-.935-1.163-1.845-2.957-2.608-5.213-1.534-4.517-2.505-10.876-2.503-17.903z"/><path d="m178.2725 214.4854c.002 5.208-1.736 9.903-4.502 13.265-2.771 3.363-6.526 5.384-10.654 5.386v2c9.642-.037 17.139-9.378 17.156-20.651h.002z"/><path d="m213.5508 213.7656c.005 4.445.642 8.465 1.716 11.46 1.089 2.926 2.535 5.153 4.937 5.261v-1.999c-.719.107-2.099-1.18-3.056-3.941-.971-2.693-1.598-6.535-1.594-10.781z"/><path d="m213.9629 213.9844c.004 5.446-1.338 10.362-3.443 13.843-2.117 3.5-4.905 5.473-7.806 5.465-2.904.008-5.692-1.965-7.808-5.465l-1.714 1.033c2.319 3.851 5.657 6.424 9.522 6.433 3.862-.009 7.201-2.582 9.519-6.433 2.328-3.868 3.728-9.105 3.732-14.876z"/></g></g></g></svg>