<svg height="35.740002mm" viewBox="0 0 35.740002 35.740002" width="35.740002mm" xmlns="http://www.w3.org/2000/svg"><g transform="matrix(.35277777 0 0 -.35277777 -138 177.73979)"><path d="m492.49411 402.51934h-101.313v101.31h101.313z" fill="#38f"/><g transform="translate(128.23811 63.98934)"><g fill="#fff100"><path d="m341.2295 404.3364c3.605-8.702-.527-18.678-9.229-22.283-8.704-3.605-18.682.528-22.288 9.23-3.605 8.703.527 18.678 9.233 22.283 8.703 3.604 18.68-.527 22.284-9.23"/><path d="m323.2012 418.5654-9.933 8.702-.867-13.174z"/><path d="m338.542 414.0938-.867 13.173-9.929-8.702z"/><path d="m346.2275 400.083 8.701 9.928-13.174.868z"/><path d="m341.7549 384.7412 13.174.868-8.701 9.929z"/><path d="m304.7144 400.083-8.702 9.929 13.173.866z"/></g><g><path d="m350.7598 372.3809c0 10.226-8.288 18.515-18.517 18.515-1.684 0-3.316-.229-4.867-.651-2.965 6.891-9.813 11.719-17.794 11.719-10.657 0-19.301-8.614-19.355-19.26-7.67-.335-13.786-6.658-13.786-14.411 0-7.968 6.459-14.428 14.427-14.428.032 0 .061.002.092.002v-.002h41.363v.002c10.192.043 18.437 8.314 18.437 18.514" fill="#fff"/><path d="m331.8164 355.8652.498.002c9.09.037 16.445 7.415 16.443 16.513-.014 9.123-7.392 16.501-16.515 16.515-1.504 0-2.957-.202-4.342-.58l-1.678-.456-.685 1.596c-2.66 6.179-8.799 10.511-15.956 10.509-9.556.002-17.308-7.725-17.355-17.271l-.011-1.905-1.902-.082c-6.603-.287-11.876-5.736-11.874-12.412.012-6.854 5.553-12.403 12.404-12.429.02 0 .059.002.116.002h1.999v-.002zm-42.857-4v.11c-8.174.948-14.518 7.891-14.52 16.319.004 8.203 6.011 14.998 13.872 16.227.969 10.898 10.119 19.441 21.27 19.443 8.207-.002 15.332-4.628 18.908-11.414 1.217.226 2.472.347 3.753.345 11.333 0 20.515-9.182 20.517-20.515-.002-10.629-8.082-19.365-18.436-20.409v-.106z" fill="#ccc"/></g></g></g></svg>