<svg height="35.740002mm" viewBox="0 0 35.740002 35.740002" width="35.740002mm" xmlns="http://www.w3.org/2000/svg"><g transform="matrix(.35277777 0 0 -.35277777 -182 177.73979)"><path d="m617.21652 402.51934h-101.311v101.31h101.311z" fill="#006"/><path d="m595.41372 456.30234c-11.046 0-20 8.954-20 20 0 7.831 4.512 14.592 11.067 17.875-.716.065-1.442.104-2.177.104-12.943 0-23.434-10.491-23.434-23.434 0-12.941 10.491-23.433 23.434-23.433 8.327 0 15.633 4.346 19.79 10.89-2.628-1.269-5.565-2.002-8.68-2.002" fill="#fff380"/><g transform="translate(128.50552 63.98934)"><path d="m475.2129 372.3813c0 10.226-8.287 18.515-18.516 18.515-1.685 0-3.316-.229-4.867-.651-2.965 6.891-9.812 11.719-17.791 11.719-10.656 0-19.301-8.614-19.355-19.26-7.67-.335-13.785-6.658-13.785-14.411 0-7.969 6.459-14.428 14.427-14.428.032 0 .061.002.092.002v-.002h41.359v.002c10.19.043 18.436 8.314 18.436 18.514" fill="#e6e6e6"/><path d="m456.2705 355.8652.498.002c9.087.038 16.445 7.417 16.443 16.514-.014 9.12-7.391 16.499-16.514 16.516-1.506 0-2.958-.203-4.343-.583l-1.678-.456-.685 1.596c-2.661 6.181-8.798 10.512-15.952 10.512-9.556 0-17.311-7.727-17.357-17.271l-.013-1.906-1.9-.082c-6.602-.287-11.875-5.737-11.873-12.414.013-6.859 5.558-12.408 12.415-12.428.018 0 .055.002.105.002h2.001v-.002zm-42.854-4v.111c-8.174.947-14.517 7.889-14.519 16.317.002 8.204 6.009 14.999 13.87 16.227.97 10.899 10.12 19.443 21.272 19.445 8.205-.002 15.327-4.628 18.903-11.414 1.217.226 2.472.345 3.755.345 11.333 0 20.513-9.185 20.515-20.515-.002-10.629-8.083-19.367-18.436-20.41v-.106z" fill="#999"/></g></g></svg>