<svg height="35.740002mm" viewBox="0 0 35.740002 35.740002" width="35.740002mm" xmlns="http://www.w3.org/2000/svg"><g transform="matrix(.35277777 0 0 -.35277777 -93.999997 87.73979)"><path d="m367.76969 147.40122h-101.313v101.31h101.313z" fill="#888"/><g transform="translate(247.18469 -65.80178)"><path d="m108.0195 274.0547c0 10.208-8.275 18.485-18.486 18.485-1.682 0-3.31-.229-4.86-.651-2.96 6.88-9.797 11.7-17.764 11.7-10.64 0-19.269-8.6-19.324-19.228-7.657-.335-13.764-6.648-13.764-14.388 0-7.955 6.449-14.405 14.404-14.405.031 0 .061.004.092.004v-.004h41.295v.002c10.174.044 18.407 8.301 18.407 18.485" fill="#ccc"/><path d="m49.5854 284.3511-.01-1.904-1.903-.084c-6.589-.288-11.854-5.726-11.852-12.39.013-6.833 5.527-12.363 12.351-12.406.024.001.073.004.146.004h1.999v-.002h39.286c9.073.039 16.419 7.405 16.416 16.486-.016 9.104-7.38 16.469-16.486 16.486-1.5-.002-2.948-.206-4.334-.581l-1.676-.458-.686 1.597c-2.658 6.169-8.784 10.491-15.928 10.489h-.004c-9.534-.001-17.272-7.712-17.319-17.237m-3.269-30.784v.111c-8.162.946-14.495 7.88-14.495 16.295.002 8.192 6.001 14.977 13.849 16.205.969 10.881 10.104 19.41 21.238 19.412 8.195-.004 15.307-4.622 18.878-11.396 1.215.227 2.467.346 3.746.346 11.317-.001 20.486-9.171 20.486-20.485 0-10.613-8.069-19.337-18.407-20.379v-.109z" fill="#333"/></g><path d="m285.47606 162.17463c-.603-1.043-1.938-1.402-2.982-.799-1.044.604-1.403 1.938-.8 2.983l7.424 12.857c.603 1.045 1.939 1.402 2.983.8 1.044-.603 1.402-1.939.799-2.983z" fill="#b8faff"/><path d="m313.70294 162.17463c-.603-1.043-1.938-1.402-2.982-.799-1.044.604-1.403 1.938-.8 2.983l7.424 12.857c.603 1.045 1.939 1.402 2.983.8 1.044-.603 1.402-1.939.799-2.983z" fill="#b8faff"/><path d="m0 0h-3.044l2.151 2.152-1.415 1.414-2.152-2.152v3.044h-1.999v-3.043l-2.151 2.151-1.415-1.414 2.151-2.152h-3.043v-2h3.042l-2.15-2.151 1.415-1.415 2.151 2.151v-3.042h1.999v3.042l2.152-2.153 1.415 1.417-2.15 2.151h3.043z" fill="#fff" transform="matrix(1.2 0 0 1.2 311.10112 179.77497)"/><path d="m0 0h-3.045l2.152 2.152-1.415 1.414-2.152-2.152v3.045h-1.999v-3.043l-2.151 2.15-1.415-1.414 2.151-2.152h-3.043v-2h3.043l-2.151-2.15 1.415-1.415 2.151 2.151v-3.042h1.999v3.042l2.152-2.153 1.415 1.417-2.15 2.15h3.043z" fill="#fff" transform="matrix(1.2 0 0 1.2 340.26952 179.77377)"/><path d="m343.39226 162.17463c-.603-1.043-1.938-1.402-2.982-.799-1.044.604-1.403 1.938-.8 2.983l7.424 12.857c.603 1.045 1.939 1.402 2.983.8 1.044-.603 1.402-1.939.799-2.983z" fill="#b8faff"/></g></svg>