<svg height="35.740002mm" viewBox="0 0 35.740002 35.740002" width="35.740002mm" xmlns="http://www.w3.org/2000/svg" xmlns:xlink="http://www.w3.org/1999/xlink"><linearGradient id="a" gradientUnits="userSpaceOnUse" x1="17.27433" x2="17.27433" y1="9.164061" y2="25.934368"><stop offset="0" stop-color="#38f"/><stop offset="1" stop-color="#888"/></linearGradient><path d="m35.74097 35.739916h-35.74097388v-35.73991557h35.74097388z" fill="url(#a)" stroke-width=".352778"/><g fill="#fff100" stroke-width="1.25" transform="matrix(.28222222 0 0 -.28222222 -69.796687 122.42737)"><path d="m341.2295 404.3364c3.605-8.702-.527-18.678-9.229-22.283-8.704-3.605-18.682.528-22.288 9.23-3.605 8.703.527 18.678 9.233 22.283 8.703 3.604 18.68-.527 22.284-9.23"/><path d="m323.2012 418.5654-9.933 8.702-.867-13.174z"/><path d="m338.542 414.0938-.867 13.173-9.929-8.702z"/><path d="m346.2275 400.083 8.701 9.928-13.174.868z"/><path d="m341.7549 384.7412 13.174.868-8.701 9.929z"/><path d="m304.7144 400.083-8.702 9.929 13.173.866z"/></g><g transform="matrix(.35277777 0 0 -.35277777 -92.760449 150.93244)"><path d="m350.7598 372.3809c0 10.226-8.288 18.515-18.517 18.515-1.684 0-3.316-.229-4.867-.651-2.965 6.891-9.813 11.719-17.794 11.719-10.657 0-19.301-8.614-19.355-19.26-7.67-.335-13.786-6.658-13.786-14.411 0-7.968 6.459-14.428 14.427-14.428.032 0 .061.002.092.002v-.002h41.363v.002c10.192.043 18.437 8.314 18.437 18.514" fill="#fff"/><path d="m331.8164 355.8652.498.002c9.09.037 16.445 7.415 16.443 16.513-.014 9.123-7.392 16.501-16.515 16.515-1.504 0-2.957-.202-4.342-.58l-1.678-.456-.685 1.596c-2.66 6.179-8.799 10.511-15.956 10.509-9.556.002-17.308-7.725-17.355-17.271l-.011-1.905-1.902-.082c-6.603-.287-11.876-5.736-11.874-12.412.012-6.854 5.553-12.403 12.404-12.429.02 0 .059.002.116.002h1.999v-.002zm-42.857-4v.11c-8.174.948-14.518 7.891-14.52 16.319.004 8.203 6.011 14.998 13.872 16.227.969 10.898 10.119 19.441 21.27 19.443 8.207-.002 15.332-4.628 18.908-11.414 1.217.226 2.472.347 3.753.345 11.333 0 20.515-9.182 20.517-20.515-.002-10.629-8.082-19.365-18.436-20.409v-.106z" fill="#ccc"/></g><path d="m5.6512737 33.422554c-.2127249.367948-.6836833.494595-1.0519833.28187-.3683-.213078-.4949472-.683683-.2822222-1.052336l2.6190222-4.535664c.212725-.368653.6840361-.494594 1.0523361-.282222.3683.212725.4945944.684036.2818694 1.052336z" fill="#cff" stroke-width=".352778"/><path d="m16.667423 33.422554c-.212725.367948-.683683.494595-1.051983.28187-.3683-.213078-.494948-.683683-.282223-1.052336l2.619022-4.535664c.212725-.368653.684037-.494594 1.052337-.282222.3683.212725.494594.684036.281869 1.052336z" fill="#cff" stroke-width=".352778"/><path d="m14.188051 30.236308h-1.288627l.91059-.911013-.599016-.598594-.911014.911014v-1.288627h-.846243v1.288203l-.91059-.91059-.5990165.598594.9105895.911013h-1.2882029v.846667h1.2877799l-.9101665.91059.5990165.599016.91059-.91059v1.28778h.846243v-1.28778l.911014.911437.599016-.599863-.910166-.91059h1.288203z" fill="#fff" stroke-width=".423333"/><path d="m25.201988 30.236731h-1.28905l.911013-.911013-.599016-.598594-.911014.911014v-1.28905h-.846243v1.288203l-.91059-.910167-.599017.598594.91059.911013h-1.288203v.846667h1.288203l-.91059.910166.599017.599017.91059-.91059v1.28778h.846243v-1.28778l.911014.911437.599016-.599864-.910166-.910166h1.288203z" fill="#fff" stroke-width=".423333"/><path d="m27.670322 33.422554c-.212725.367948-.683684.494595-1.051984.28187-.3683-.213078-.494947-.683683-.282222-1.052336l2.619022-4.535664c.212725-.368653.684036-.494594 1.052336-.282222.3683.212725.494595.684036.28187 1.052336z" fill="#cff" stroke-width=".352778"/></svg>