<svg height="35.740002mm" viewBox="0 0 35.740002 35.740002" width="35.740002mm" xmlns="http://www.w3.org/2000/svg"><g transform="matrix(.35277777 0 0 -.35277777 -182 132.73983)"><path d="m617.21852 274.96028h-101.313v101.31h101.313z" fill="#888"/><path d="m568.65372 333.16506.00001-3.89235 3.36751 1.94423c-1.12268.64908-2.24766 1.29422-3.3677 1.94781zm5.49246-5.58635-3.37088-1.94619 3.36752-1.94423c.00077 1.2968-.003 2.59364.003 3.89042zm-2.09172-7.54979-3.37088 1.94617v-3.88847c1.12346.64773 2.24466 1.29942 3.3707 1.94261zm-7.58415-1.96343-.00001 3.89236-3.36751-1.94424c1.12267-.64907 2.24762-1.29428 3.36752-1.94812zm-5.49245 5.58637 3.37087 1.94618-3.36751 1.94423c-.00078-1.2968.003-2.59364-.003-3.89041zm2.0917 7.54978 3.37088-1.94617v3.88847c-1.12345-.64773-2.24469-1.29936-3.37088-1.9423zm-3.3499 1.93314-3.65053 2.10762-3.58381 8.77563-.90683-6.18296-5.76959 3.33109-.3061 7.09281-2.904-5.02988-6.71625 1.2536 4.44387-5.18948-2.904-5.0299 6.2956 3.28133 5.75532-3.32284-4.86617-3.84913 9.32472 1.27498 3.69689-2.13439-.00003-7.79591-3.65053-2.10764-9.39182 1.28414 4.90119-3.87681-5.7696-3.33106-6.29559 3.2813 2.904-5.02987-4.4438-5.18965 6.71619 1.25376 2.90399-5.02988.30611 7.09282 5.7553 3.32282.90036-6.13879 3.55821 8.71294 3.69687 2.1344 6.75152-3.89801v-4.2688l-5.76653-7.43795 5.76653 2.28966v-6.64566l-5.9895-3.8115h5.808l2.27229-6.44325 2.27247 6.44325h5.808l-5.9895 3.8115v6.66215l5.808-2.30615-5.808 7.49148v4.21527l6.7515 3.89797 3.69688-2.1344 3.5582-8.71293.90036 6.13879 5.75532-3.32284.3061-7.09281 2.904 5.02989 6.71617-1.25376-4.44379 5.18963 2.904 5.02988-6.2956-3.28131-5.7696 3.33108 4.90119 3.87681-9.39182-1.28414-3.65053 2.10763-.00003 7.796 3.69689 2.13439 9.32472-1.27498-4.86616 3.84912 5.75531 3.32283 6.2956-3.2813-2.904 5.02987 4.44387 5.18949-6.71625-1.2536-2.904 5.02987-.3061-7.09281-5.76959-3.33108-.90682 6.18296-3.58382-8.77562-3.65053-2.10764-6.75147 3.89794v4.21527l5.808 7.49148-5.808-2.30615v6.66215l5.9895 3.8115h-5.808l-2.27247 6.44324-2.27229-6.44324h-5.808l5.9895-3.8115v-6.64566l-5.76653 2.28966 5.76653-7.43795v-4.2688z" fill="#fff" fill-rule="evenodd"/></g></svg>