<svg height="35.740002mm" viewBox="0 0 35.740002 35.740002" width="35.740002mm" xmlns="http://www.w3.org/2000/svg"><g transform="matrix(.35277777 0 0 -.35277777 -5.999999 132.73979)"><path d="m118.32087 274.96028h-101.313v101.31h101.313z" fill="#888"/><g transform="translate(-245.93513 61.757282)"><path d="m351.6895 274.0547c0 10.208-8.273 18.485-18.486 18.485-1.682 0-3.309-.229-4.86-.651-2.959 6.88-9.796 11.7-17.764 11.7-10.64 0-19.269-8.6-19.324-19.228-7.657-.335-13.764-6.648-13.764-14.388 0-7.955 6.449-14.405 14.405-14.405.031 0 .061.004.091.004v-.004h41.296v.002c10.174.044 18.406 8.301 18.406 18.485" fill="#ccc"/><path d="m332.7754 257.5684.498.002c9.074.038 16.416 7.404 16.416 16.484h-.002c-.015 9.103-7.377 16.47-16.484 16.487-1.501-.002-2.949-.205-4.335-.582l-1.678-.456-.686 1.595c-2.654 6.17-8.782 10.492-15.926 10.49-9.536.002-17.275-7.71-17.324-17.238l-.01-1.903-1.902-.085c-6.59-.286-11.854-5.725-11.852-12.39.013-6.839 5.538-12.374 12.375-12.404.027.001.068.002.121.002h2v-.002zm-42.789-4v.11c-8.161.948-14.494 7.88-14.496 16.294.004 8.193 6.002 14.978 13.85 16.205.969 10.881 10.104 19.409 21.238 19.411 8.194-.002 15.308-4.62 18.878-11.395 1.215.227 2.466.347 3.747.346 11.317 0 20.484-9.171 20.486-20.485h-.002c0-10.611-8.066-19.336-18.406-20.38v-.106z" fill="#333"/></g><g fill="#fff"><path d="m0 0h-3.044l2.151 2.152-1.415 1.414-2.152-2.152v3.044h-1.999v-3.043l-2.151 2.151-1.415-1.414 2.151-2.152h-3.043v-2h3.042l-2.15-2.151 1.415-1.415 2.151 2.151v-3.042h1.999v3.042l2.152-2.153 1.415 1.417-2.15 2.151h3.043z" transform="matrix(1.2 0 0 1.2 52.26597 308.55488)"/><path d="m0 0h-3.044l2.151 2.152-1.415 1.414-2.152-2.152v3.044h-1.999v-3.042l-2.151 2.15-1.415-1.414 2.151-2.152h-3.043v-2h3.042l-2.15-2.15 1.415-1.416 2.151 2.152v-3.043h1.999v3.043l2.152-2.154 1.415 1.418-2.15 2.15h3.043z" transform="matrix(1.2 0 0 1.2 64.09167 296.49328)"/><path d="m0 0h-3.045l2.152 2.152-1.415 1.414-2.152-2.152v3.045h-1.999v-3.043l-2.151 2.15-1.415-1.414 2.151-2.152h-3.043v-2h3.043l-2.151-2.15 1.415-1.415 2.151 2.151v-3.042h1.999v3.042l2.152-2.153 1.415 1.417-2.15 2.15h3.043z" transform="matrix(1.2 0 0 1.2 85.67707 308.55418)"/><path d="m0 0h-3.045l2.152 2.152-1.415 1.414-2.152-2.152v3.044h-1.999v-3.042l-2.151 2.15-1.415-1.414 2.151-2.152h-3.043v-2h3.043l-2.151-2.15 1.415-1.416 2.151 2.152v-3.043h1.999v3.043l2.152-2.154 1.415 1.418-2.15 2.15h3.043z" transform="matrix(1.2 0 0 1.2 99.26207 296.49328)"/><path d="m0 0h-3.045l2.152 2.152-1.415 1.414-2.152-2.152v3.045h-1.999v-3.043l-2.151 2.15-1.415-1.414 2.151-2.152h-3.043v-2h3.043l-2.151-2.15 1.415-1.415 2.151 2.151v-3.042h1.999v3.042l2.152-2.153 1.415 1.417-2.15 2.15h3.043z" transform="matrix(1.2 0 0 1.2 78.17517 287.93158)"/><path d="m0 0h-3.045l2.152 2.152-1.415 1.414-2.152-2.152v3.045h-1.999v-3.043l-2.151 2.15-1.415-1.414 2.151-2.152h-3.043v-2h3.043l-2.151-2.15 1.415-1.415 2.151 2.151v-3.042h1.999v3.042l2.152-2.153 1.415 1.417-2.15 2.15h3.043z" transform="matrix(1.2 0 0 1.2 42.64487 287.93158)"/></g></g></svg>