<svg height="35.740002mm" viewBox="0 0 35.740002 35.740002" width="35.740002mm" xmlns="http://www.w3.org/2000/svg"><g transform="matrix(.35277777 0 0 -.35277777 -226 42.739832)"><path d="m741.94294 19.842161h-101.313v101.309999h101.313z" fill="#006"/><path d="m724.94785 85.203731c-8.8368 0-16 7.1632-16 15.999999 0 6.2648 3.6096 11.6736 8.8536 14.3-.5728.052-1.1536.0832-1.7416.0832-10.3544 0-18.7472-8.3928-18.7472-18.747199 0-10.352801 8.3928-18.7464 18.7472-18.7464 6.6616 0 12.5064 3.4768 15.832 8.712-2.1024-1.0152-4.452-1.6016-6.944-1.6016" fill="#fff380"/><path d="m688.08659 57.439163-10.10954-22.361744 10.28086 4.454776-6.03823-11.092991 9.79447 4.330511-5.27756-12.31432 15.9463 21.0632-10.88086-5.131984 6.60182 11.294472-10.67939-4.604776 7.57462 13.623512z" fill="#ff9" fill-rule="evenodd"/><g transform="translate(377.68694 -306.68784)"><path d="m350.7598 372.3809c0 10.226-8.288 18.515-18.517 18.515-1.684 0-3.316-.229-4.867-.651-2.965 6.891-9.813 11.719-17.794 11.719-10.657 0-19.301-8.614-19.355-19.26-7.67-.335-13.786-6.658-13.786-14.411 0-7.968 6.459-14.428 14.427-14.428.032 0 .061.002.092.002v-.002h41.363v.002c10.192.043 18.437 8.314 18.437 18.514" fill="#fff"/><path d="m331.8164 355.8652.498.002c9.09.037 16.445 7.415 16.443 16.513-.014 9.123-7.392 16.501-16.515 16.515-1.504 0-2.957-.202-4.342-.58l-1.678-.456-.685 1.596c-2.66 6.179-8.799 10.511-15.956 10.509-9.556.002-17.308-7.725-17.355-17.271l-.011-1.905-1.902-.082c-6.603-.287-11.876-5.736-11.874-12.412.012-6.854 5.553-12.403 12.404-12.429.02 0 .059.002.116.002h1.999v-.002zm-42.857-4v.11c-8.174.948-14.518 7.891-14.52 16.319.004 8.203 6.011 14.998 13.872 16.227.969 10.898 10.119 19.441 21.27 19.443 8.207-.002 15.332-4.628 18.908-11.414 1.217.226 2.472.347 3.753.345 11.333 0 20.515-9.182 20.517-20.515-.002-10.629-8.082-19.365-18.436-20.409v-.106z" fill="#ccc"/></g><g fill="#b8faff"><path d="m657.90414 29.932638c-.603-1.043-1.938-1.402-2.982-.799-1.044.604-1.403 1.938001-.8 2.983l6.39275 10.982002c.603 1.045 1.939 1.402 2.983.8 1.044-.603 1.402-1.939.799-2.983z"/><path d="m704.97204 29.932638c-.603-1.043-1.938-1.402-2.982-.799-1.044.604-1.403 1.938001-.8 2.983l6.39275 10.982002c.603 1.045 1.939 1.402 2.983.8 1.044-.603 1.402-1.939.799-2.983z"/><path d="m669.61444 25.34848c-.603-1.043002-1.938-1.402003-2.982-.798999-1.044.603999-1.403 1.937999-.8 2.983l4.50345 7.700579c.603 1.045001 1.939 1.402001 2.983.8 1.044-.603 1.402-1.939.799-2.983z"/><path d="m717.31613 25.34848c-.603-1.043002-1.938-1.402003-2.982-.798999-1.044.603999-1.403 1.937999-.8 2.983l4.50345 7.700579c.603 1.045001 1.939 1.402001 2.983.8 1.044-.603 1.402-1.939.799-2.983z"/></g></g></svg>