<svg height="35.740002mm" viewBox="0 0 35.740002 35.740002" width="35.740002mm" xmlns="http://www.w3.org/2000/svg"><g transform="matrix(.35277777 0 0 -.35277777 -93.999997 132.73979)"><path d="m367.76969 274.96028h-101.313v101.31h101.313z" fill="#888"/><g fill="#fff" transform="translate(-120.94231 61.757281)"><path d="m400.9209 237.4658c-2.295 2.547-3.471 6.037-3.469 9.87.006 6.703 3.54 14.54 11.208 21.118l.002-.003 1.951-2.277c-7.126-6.102-10.168-13.201-10.161-18.838.002-3.235.984-5.96 2.697-7.861 1.72-1.897 4.177-3.058 7.516-3.069 1.941 0 4.175.411 6.68 1.353 21.422 8.088 31.641 15.35 40.212 18.354.988.346 1.976.511 2.934.511 5.747-.111 9.659-5.445 9.709-10.36.009-1.96-.683-3.971-2.277-5.424-1.591-1.457-3.941-2.265-6.971-2.261-.303 0-.613.007-.937.022-1.742.143-3.105 1.239-4.269 2.633-1.129 1.419-2.001 3.259-2.012 5.287 0 .153.002.329.023.534l2.985-.299c-.006-.05-.01-.128-.01-.235-.01-1.101.552-2.424 1.354-3.408.769-1.009 1.834-1.559 2.073-1.517.27-.011.535-.017.793-.017 2.527.004 4.049.655 4.945 1.473.889.823 1.294 1.904 1.302 3.212.01 1.647-.739 3.573-1.985 5.003-1.254 1.442-2.909 2.357-4.723 2.355-.617 0-1.263-.102-1.95-.341-7.867-2.707-18.504-10.151-40.139-18.328-2.786-1.049-5.374-1.547-7.737-1.547h-.041c-4.041 0-7.426 1.517-9.703 4.06"/><path d="m418.3584 245.3892c-5.079 1.276-7.526 5.223-7.432 9.374.061 6.281 4.453 13.379 10.05 17.633l1.8-2.402c-4.936-3.643-8.91-10.408-8.85-15.231.094-3.16 1.27-5.324 5.211-6.478.88-.237 1.854-.353 2.916-.353 5.328-.029 12.632 3.053 19.308 6.625 6.715 3.568 12.789 7.53 16.356 9.215 1.928.907 4.066 1.356 6.208 1.356 3.305 0 6.653-1.065 9.228-3.309 2.581-2.238 4.293-5.695 4.278-10.076 0-.714-.042-1.449-.128-2.21l-2.983.342c.075.656.113 1.278.113 1.868-.044 7.132-5.136 10.294-10.508 10.384-1.721.002-3.435-.364-4.931-1.068-3.185-1.49-9.404-5.519-16.223-9.15-6.858-3.627-14.331-6.948-20.718-6.977-1.278 0-2.515.138-3.695.457"/><path d="m425.4844 256.0933c-1.028 1.4-1.419 3.149-1.423 4.981.038 4.589 2.429 10.058 6.745 13.134l.002-.003 1.719-2.455c-3.338-2.282-5.501-7.152-5.465-10.676-.005-1.398.326-2.525.832-3.196.518-.66 1.121-1.033 2.363-1.058.509 0 1.122.082 1.84.279 8.505 2.315 17.576 10.602 24.744 13.586 3.031 1.232 6.511 1.777 9.831 1.782 4.697-.045 9.048-.994 11.541-3.372l-2.113-2.129c-1.3 1.381-5.211 2.542-9.428 2.5-2.985.002-6.134-.509-8.699-1.559-6.33-2.517-15.577-11.014-25.076-13.698-.934-.258-1.812-.389-2.64-.389-.028-.001-.055-.001-.083-.001-1.976 0-3.688.883-4.69 2.274"/><path d="m437.3711 266.9805c-.923.654-1.461 1.835-1.435 3.008.022 1.665.769 3.43 2.212 5.642h.002l2.501-1.655c-1.299-1.943-1.736-3.353-1.716-3.987.028-.461.086-.469.219-.595.147-.12.592-.289 1.317-.285 1.996-.027 5.592 1.242 8.921 3.544 7.239 4.905 15.566 6.015 19.28 8.532 1.239.821 1.899 1.621 2.181 2.7.16.624.229 1.212.229 1.763-.006 3.401-2.771 5.665-5.443 5.667-.648 0-1.282-.132-1.879-.408-.93-.394-2.201-1.81-3.076-3.502-.899-1.673-1.448-3.623-1.435-4.771-.004-.469.095-.762.132-.812l-2.597-1.5c-.423.743-.528 1.525-.534 2.312.015 1.925.712 4.128 1.784 6.174 1.094 2.026 2.516 3.892 4.468 4.824 1.009.467 2.081.682 3.137.682 4.291-.008 8.427-3.537 8.442-8.666.002-.806-.103-1.646-.32-2.505-.496-1.975-1.837-3.431-3.45-4.471-1.621-1.054-3.562-1.808-5.682-2.56-4.235-1.493-9.202-2.963-13.542-5.937-3.738-2.528-7.579-4.038-10.616-4.065-1.114.004-2.186.209-3.1.871"/></g></g></svg>